<?xml version="1.0" encoding="UTF-8"?>
<svg width="48px" height="48px" viewBox="0 0 48 48" version="1.1" xmlns="http://www.w3.org/2000/svg" xmlns:xlink="http://www.w3.org/1999/xlink">
    <title>DCFF434F-7243-4137-A213-E0187503FB63</title>
    <g id="Page-1" stroke="none" stroke-width="1" fill="none" fill-rule="evenodd">
        <g id="Piyasalar---Desktop" transform="translate(-1125.000000, -250.000000)" fill="#FFFFFF" fill-rule="nonzero">
            <g id="RIGHT" transform="translate(1021.000000, 103.000000)">
                <g id="Group-27" transform="translate(20.000000, 80.000000)">
                    <g id="Buttons/Change" transform="translate(84.000000, 67.000000)">
                        <path d="M24,48 C37.254834,48 48,37.254834 48,24 C48,10.745166 37.254834,0 24,0 C10.745166,0 0,10.745166 0,24 C0,37.254834 10.745166,48 24,48 Z M24,46 C11.8497355,46 2,36.1502645 2,24 C2,11.8497355 11.8497355,2 24,2 C36.1502645,2 46,11.8497355 46,24 C46,36.1502645 36.1502645,46 24,46 Z" id="Oval"></path>
                        <g id="Icons/Change_con" transform="translate(8.000000, 8.000000)">
                            <path d="M23.0314331,8.1574707 C23.5442689,8.1574707 23.9669403,8.54351089 24.0247054,9.04084958 L24.0314331,9.1574707 L24.0314331,21.0824707 L26.3243263,18.7903603 C26.6848103,18.4298763 27.2520413,18.4021468 27.6443325,18.7071717 L27.7385399,18.7903603 C28.0990238,19.1508442 28.1267534,19.7180753 27.8217285,20.1103665 L27.7385399,20.2045738 L23.7385399,24.2045738 C23.3780559,24.5650578 22.8108249,24.5927873 22.4185337,24.2877624 L22.3243263,24.2045738 L18.3243263,20.2045738 C17.933802,19.8140495 17.933802,19.1808846 18.3243263,18.7903603 C18.6848103,18.4298763 19.2520413,18.4021468 19.6443325,18.7071717 L19.7385399,18.7903603 L22.0314331,21.0824707 L22.0314331,9.1574707 C22.0314331,8.64463486 22.4174733,8.22196354 22.914812,8.16419843 L23.0314331,8.1574707 Z M8.38710056,8.20970461 C8.77939176,7.90467972 9.34662282,7.93240926 9.70710678,8.29289322 L9.70710678,8.29289322 L13.7071068,12.2928932 L13.7902954,12.3871006 C14.0953203,12.7793918 14.0675907,13.3466228 13.7071068,13.7071068 L13.7071068,13.7071068 L13.6128994,13.7902954 C13.2206082,14.0953203 12.6533772,14.0675907 12.2928932,13.7071068 L12.2928932,13.7071068 L10,11.4149963 L10,23.3399963 L9.99327227,23.4566175 C9.93550716,23.9539561 9.51283584,24.3399963 9,24.3399963 L9,24.3399963 L8.88337887,24.3332686 C8.38604019,24.2755035 8,23.8528322 8,23.3399963 L8,23.3399963 L8,11.4149963 L5.70710678,13.7071068 L5.61289944,13.7902954 C5.22060824,14.0953203 4.65337718,14.0675907 4.29289322,13.7071068 C3.90236893,13.3165825 3.90236893,12.6834175 4.29289322,12.2928932 L4.29289322,12.2928932 L8.29289322,8.29289322 Z" id="Combined-Shape"></path>
                        </g>
                    </g>
                </g>
            </g>
        </g>
    </g>
</svg>